<svg width="181" height="29" viewBox="0 0 181 29" fill="none" xmlns="http://www.w3.org/2000/svg">
<g clip-path="url(#clip0_5_193)">
<path fill-rule="evenodd" clip-rule="evenodd" d="M105.103 6.22346L105.098 6.22062C105.773 5.48209 106.522 4.69774 107.305 3.94309C106.352 3.47787 105.471 2.95052 104.62 2.44038C102.775 1.33498 101.064 0.310314 99.0397 0.173186C97.4695 0.0758624 95.8976 0.336049 94.442 0.934209C94.442 0.934209 93.6551 -0.135557 91.2318 0.211102C88.8085 0.55776 81.344 3.68039 74.9829 13.8635C69.2331 23.0689 71.9349 28.3473 76.0647 28.2904C80.5408 28.2281 84.7976 23.2449 86.2419 19.1365C87.6861 15.0281 85.9822 13.9149 84.6733 14.0206C83.2264 14.1424 80.6705 15.4316 79.2643 18.2807C77.8578 21.1298 77.8578 22.8848 77.8578 22.8848C78.4327 22.2808 79.0578 21.7272 79.7267 21.23C80.3287 20.7592 80.992 20.3729 81.6983 20.0816C81.8636 19.3455 82.1094 18.6299 82.4312 17.9475C82.9397 16.886 83.7457 15.7809 84.7409 15.5318C86.7611 15.0253 85.793 18.714 84.3082 21.1189C83.5104 22.4026 80.6787 26.1156 78.2473 26.1156C75.816 26.1156 75.3507 23.7703 75.8619 21.5684C76.373 19.3666 77.0843 16.5826 80.6381 11.5127C84.1919 6.44283 88.0349 3.43665 90.2608 2.17731C92.5462 0.880045 93.4765 1.44878 93.4765 1.44878C93.4765 1.44878 90.5584 3.24165 88.8978 5.40827C87.313 7.47739 86.3637 9.80379 87.0992 10.944C87.8024 12.03 90.2717 12.0516 92.9951 8.11925C95.6834 4.23558 95.0073 1.92544 95.0073 1.92544C95.1843 1.86782 95.365 1.82256 95.5482 1.79003C96.8599 1.61398 97.9093 1.96335 99.5319 2.7975C100.323 3.20444 101.1 3.72566 101.93 4.28239C102.882 4.92137 103.904 5.60728 105.098 6.22062L105.095 6.22346H105.103ZM94.0877 2.22606C94.0877 2.22606 92.3568 2.91666 90.3446 5.13744C88.3325 7.35821 87.1587 9.85796 88.0268 10.5188C88.3596 10.7706 89.1276 10.814 90.5232 9.55733C91.8099 8.43822 92.8199 7.03562 93.4738 5.45973C94.323 3.38627 94.1167 2.36975 94.0903 2.23993C94.0887 2.23206 94.0877 2.22745 94.0877 2.22606Z" fill="#070B12"/>
<path d="M108.61 7.48139L108.608 7.4828C113.336 8.41986 117.477 5.4868 119.678 2.98979C120.481 2.0962 121.173 1.10756 121.736 0.0458984C120.734 1.09117 119.611 2.01471 118.393 2.7975L118.38 2.79479C116.33 4.11101 113.493 5.30535 110.767 5.04265C110.077 5.75763 109.339 6.58366 108.603 7.48009L108.61 7.48139Z" fill="#070B12"/>
<path fill-rule="evenodd" clip-rule="evenodd" d="M110.274 24.3067C109.882 24.935 109.436 26.1401 110.732 25.39C112.308 24.4772 114.556 21.0567 114.556 21.0567H115.573C114.646 22.4862 113.613 23.8441 112.484 25.1191C110.886 26.8931 108.936 28.5044 107.562 28.3446C105.958 28.1577 106.461 26.048 106.461 26.048C106.461 26.048 104.157 28.4854 102.575 28.3203C100.43 28.0819 101.084 25.4278 101.084 25.4278C101.084 25.4278 98.6503 28.407 97.0059 28.3175C94.415 28.1686 95.0669 25.0027 95.7863 22.7872C96.1731 21.5984 96.53 20.664 96.53 20.664C96.53 20.664 96.2731 20.7317 95.7187 20.8129C95.4292 20.8535 94.9074 20.8834 94.9074 20.8834C94.3127 21.9335 93.6645 22.9521 92.9654 23.9356C92.1027 25.0839 88.4381 29.0298 86.2744 28.2391C84.2785 27.5079 84.9383 24.4475 86.1013 22.01C87.7971 18.4649 92.5678 13.3706 95.3184 14.0396C98.1717 14.7329 95.3833 19.9436 95.3833 19.9436C95.3833 19.9436 95.3833 19.9625 95.413 19.9761C95.5931 20.0086 95.7785 19.9984 95.954 19.9462C96.3106 19.874 96.6599 19.7698 96.9978 19.6348C96.9978 19.6348 99.8647 13.6225 103.032 9.69009C106.199 5.75769 112.525 -1.00756 115.005 0.630943C115.61 1.03447 115.335 2.42111 114.518 4.10565C114.15 4.22221 113.776 4.31984 113.398 4.39814C113.851 3.64591 114.194 2.83232 114.415 1.98237C114.788 -0.0488324 110.05 4.23294 106.664 8.84241C104.627 11.6193 102.819 14.5565 101.255 17.6254C101.867 17.253 102.451 16.8366 103.002 16.3795C104.513 15.1251 105.948 13.7831 107.302 12.3605C108.601 11.0204 109.819 9.60417 110.951 8.11931C111.313 8.10224 111.674 8.06518 112.032 8.00827C110.795 9.68931 109.446 11.2854 107.995 12.7857C107.875 12.9054 107.755 13.0261 107.634 13.1474C106.386 14.399 105.069 15.7188 103.911 16.6964C102.779 17.6654 101.586 18.5593 100.338 19.3722C100.338 19.3722 97.363 25.352 98.9858 25.7365C99.9323 25.964 101.804 23.0798 101.804 23.0798C101.804 23.0798 104.238 19.3504 105.715 17.6632C107.711 15.3883 109.439 14.0775 111.156 14.0423C112.162 14.0233 112.755 15.0985 112.755 15.0985L113.228 14.3646H116.141C116.141 14.3646 110.702 23.6052 110.266 24.3012L110.274 24.3067ZM112.1 16.133C112.136 16.0703 112.164 16.004 112.186 15.9354C112.173 15.8271 112.122 15.7269 112.043 15.6515C111.965 15.5761 111.862 15.53 111.754 15.521C111.305 15.4994 110.688 15.586 109.079 17.3708C107.742 18.8486 106.592 20.4859 105.655 22.2457C104.733 23.9329 104.36 25.1894 104.89 25.5145C105.062 25.603 105.261 25.6233 105.447 25.5714C105.807 25.4847 106.212 25.1488 106.832 24.4312C107.063 24.1623 107.316 23.803 107.605 23.3923L107.607 23.3884C107.678 23.2876 107.751 23.1835 107.827 23.0771C108.892 21.6255 111.57 17.0539 112.1 16.1304V16.133ZM95.3697 18.0721C95.6402 17.368 95.981 15.9869 95.2696 15.4452C94.5044 14.8683 92.5652 16.2197 92.5462 17.6117C92.5273 19.0039 93.9175 19.6728 94.2501 19.7621C94.4394 19.8136 94.5044 19.8055 94.5963 19.6538C94.8904 19.147 95.1489 18.6204 95.3697 18.0776V18.0721ZM93.8958 20.6586C93.413 20.435 92.9627 20.1472 92.5571 19.8028C92.1486 19.4612 91.8066 19.0471 91.5483 18.5814C91.5258 18.5432 91.5035 18.5682 91.4796 18.5947C91.4746 18.6004 91.4695 18.606 91.4644 18.6111C91.4339 18.6417 91.3127 18.763 90.2745 20.2848C89.2305 21.815 87.6403 24.9674 89.0844 25.5064C90.0094 25.8504 91.5483 24.2281 92.392 23.1529C92.9633 22.403 93.4811 21.6139 93.9418 20.7913C93.9851 20.6992 93.9418 20.6775 93.8958 20.6586Z" fill="#070B12"/>
<path d="M77.4982 7.33118H74.7287L73.1628 9.86611H75.9323L77.4982 7.33118Z" fill="#070B12"/>
<path fill-rule="evenodd" clip-rule="evenodd" d="M70.9965 14.267H72.0025C72.0025 14.267 66.918 21.6254 64.0432 21.2896C62.4394 21.1027 62.9153 19.1229 62.9153 19.1229C62.9153 19.1229 60.657 21.7635 58.5881 21.2354C56.7111 20.7533 57.9228 17.6307 57.9228 17.6307C57.8908 17.6436 57.7728 17.7571 57.5857 17.9372C56.5218 18.9609 53.2228 22.1353 50.7963 21.2002C47.8214 20.0465 49.3602 16.2088 49.9282 15.0551C50.4095 14.0829 50.9424 13.135 50.9424 13.135C50.9424 13.135 50.4853 13.265 50.1986 13.33C49.912 13.395 49.4819 13.4789 49.4819 13.4789C49.4819 13.4789 48.0701 15.7782 47.2074 16.9238C46.3447 18.0695 42.6746 22.0127 40.5136 21.2273C38.3528 20.4418 38.891 17.4141 40.1025 14.9982C42.0715 11.0984 46.7449 6.30472 49.5684 7.02512C52.392 7.74551 50.058 12.3685 50.058 12.3685C50.058 12.3685 50.6233 12.4417 51.9781 11.5154C52.5378 11.1341 53.1478 10.5682 53.7989 9.96448C55.4224 8.45864 57.2997 6.71735 59.2804 7.01699C60.5894 7.2147 61.8092 8.5607 60.1405 11.1146C59.5996 11.9271 58.7098 12.6691 58.0228 11.9433C57.5955 11.4965 57.9687 10.6705 58.4177 10.1071C58.5932 9.87756 58.8224 9.69476 59.0851 9.5748C59.3477 9.45484 59.6359 9.40141 59.924 9.41923C59.924 9.41923 60.3839 8.3603 59.2128 8.38196C58.2635 8.40091 55.8618 10.6136 54.5069 12.8506C53.279 14.9117 51.3994 18.4107 53.279 19.1744C55.0127 19.8759 58.3121 15.9542 59.8402 13.8987C61.3683 11.8431 64.8464 7.18491 67.7673 6.99804C68.7734 6.93303 69.3711 7.85114 69.3711 7.85114L69.7091 7.30948H72.6246C72.6246 7.30948 67.1344 16.5149 66.7043 17.2056C66.3663 17.7471 65.9173 18.974 67.1614 18.2889C68.4056 17.6036 70.9965 14.267 70.9965 14.267ZM64.3839 16.1005C65.563 14.4756 68.8139 8.81528 68.8139 8.81528C68.8 8.70705 68.7495 8.60686 68.6707 8.53144C68.5919 8.45603 68.4898 8.40995 68.3812 8.40093C67.9322 8.37925 67.1858 8.53092 65.6767 10.3996C64.1676 12.2683 63.0425 13.7552 62.2041 15.3016C61.2791 16.9888 60.8761 18.1805 61.4062 18.5027C61.5785 18.59 61.7769 18.6102 61.9633 18.5596C62.3095 18.473 62.7611 18.1263 63.3806 17.4113C63.6726 17.0782 64.0025 16.6286 64.3892 16.1005H64.3839ZM49.5278 8.43613C48.7624 7.85655 46.8234 9.21069 46.8044 10.6027C46.7855 11.9948 48.5623 12.4281 48.7923 12.4389C48.8435 12.4525 48.8978 12.4487 48.9468 12.4281C48.9957 12.4075 49.0364 12.3714 49.0627 12.3252C49.2707 11.9171 49.4576 11.4986 49.6225 11.0713C49.893 10.3671 50.231 8.9859 49.5197 8.44425L49.5278 8.43613ZM48.365 13.3191C47.8373 13.1539 47.3328 12.9218 46.864 12.6285C46.4065 12.3327 46.0338 11.923 45.7822 11.4396C45.7586 11.3995 45.7329 11.4293 45.7087 11.4573C45.7053 11.4615 45.7018 11.4656 45.6983 11.4694C45.6712 11.4992 45.5144 11.705 44.4732 13.2352C43.4319 14.7654 41.8876 17.896 43.3345 18.4324C44.2594 18.7763 45.8146 17.1486 46.6557 16.0734C47.2895 15.2343 47.8755 14.3599 48.4109 13.4546C48.446 13.3625 48.4109 13.3408 48.3595 13.3245L48.365 13.3191Z" fill="#070B12"/>
<path d="M69.4062 29C67.2553 27.5094 64.68 26.7567 62.0661 26.855C61.3586 26.8742 60.6655 27.0602 60.0432 27.3982C59.421 27.736 58.8873 28.2161 58.4853 28.7996C57.3711 26.8524 55.1696 25.658 51.7646 25.685C48.8816 25.7178 46.01 26.431 43.3077 27.1021C40.8538 27.7115 38.5396 28.2863 36.484 28.285C32.3352 28.285 29.3142 25.6743 29.4143 21.0404C29.5928 12.9156 36.4461 5.60328 41.5847 2.3046C44.53 0.408817 46.9937 -0.149085 48.6165 0.0323685C49.793 0.162365 51.2074 1.52463 50.3149 3.53145C49.0033 6.46993 47.1912 6.22347 47.2589 4.82058C47.2869 4.45462 47.4015 4.10056 47.5928 3.78749C47.7842 3.4744 48.047 3.21124 48.3595 3.01958C48.6914 2.83874 49.0636 2.74553 49.4414 2.74876C49.7118 2.52939 49.8984 0.923389 47.7888 1.45151C45.6794 1.97961 43.11 4.05685 40.6868 6.73803C38.2636 9.41923 34.4934 14.4837 33.5603 19.8028C33.1249 22.27 33.4142 26.7684 39.2398 26.7196C41.486 26.7012 44.2186 26.0188 47.1613 25.2841C50.6994 24.4007 54.5408 23.4416 58.204 23.4697C60.5406 23.4598 62.8354 24.0891 64.8409 25.2897C66.5773 26.373 68.6571 27.9221 69.3954 28.9891L69.4062 29Z" fill="#070B12"/>
<path d="M16.3301 18.4649H22.1772L21.9852 17.1323H17.85V15.5074H20.6357V14.1533H17.85V12.772H21.9068L22.1015 11.4396H16.3328L16.3301 18.4649Z" fill="#070B12"/>
<path d="M7.67554 18.4648H9.19549V15.3584H12.7763V18.4621H14.3016V11.4612H12.779V13.9989H9.19549V11.4585H7.68366L7.67554 18.4648Z" fill="#070B12"/>
<path d="M0 12.8262H2.33131V18.4567H3.85666V12.8262H6.18797V11.4558H0V12.8262Z" fill="#070B12"/>
<path d="M178.443 11.4776H180.122L177.355 16.1249V18.4784H175.831V16.1548L173.036 11.4749H174.753L176.607 14.7519L178.443 11.4776Z" fill="#070B12"/>
<path d="M170.353 16.2169V11.4775L171.838 11.4694V18.4702H170.305L166.911 13.6468V18.4702H165.425V11.4694H167.005L170.353 16.2169Z" fill="#070B12"/>
<path fill-rule="evenodd" clip-rule="evenodd" d="M164.09 18.473H162.486L161.904 16.9103H158.834L158.253 18.4649H156.661L159.444 11.4667H161.317L164.09 18.473ZM160.379 12.8181L159.332 15.594L161.417 15.5914L160.379 12.8181Z" fill="#070B12"/>
<path fill-rule="evenodd" clip-rule="evenodd" d="M150.594 11.4639H154.189C154.655 11.4488 155.12 11.5473 155.541 11.751C155.892 11.9248 156.181 12.2004 156.374 12.5418C156.559 12.8928 156.656 13.2837 156.656 13.6806C156.656 14.0776 156.559 14.4685 156.374 14.8194C156.18 15.1613 155.89 15.4382 155.541 15.6157C155.12 15.8203 154.657 15.9198 154.189 15.9054H152.12V18.4621H150.594V11.4639ZM152.13 14.554H154.161C154.418 14.5707 154.67 14.4884 154.867 14.3238C155.03 14.1493 155.12 13.9194 155.12 13.6806C155.12 13.4418 155.03 13.2119 154.867 13.0374C154.667 12.8773 154.415 12.7972 154.158 12.8126H152.13V14.554Z" fill="#070B12"/>
<path d="M146.519 11.464H148.566L148.568 18.4675H147.092V13.3219L144.945 18.3592H143.925L141.802 13.4492V18.4568H140.325V11.464H142.372L144.466 16.3389L146.519 11.464Z" fill="#070B12"/>
<path d="M134.928 17.1974C134.927 17.1974 134.928 17.1975 134.928 17.1974V17.1974Z" fill="#070B12"/>
<path fill-rule="evenodd" clip-rule="evenodd" d="M136.855 18.1182C136.261 18.4315 135.598 18.5899 134.927 18.5785L134.919 18.5813C134.247 18.5919 133.584 18.4335 132.99 18.1209C132.436 17.8241 131.976 17.3774 131.662 16.8317C131.347 16.2567 131.181 15.6111 131.181 14.9548C131.181 14.2987 131.347 13.6531 131.662 13.0781C131.977 12.5323 132.438 12.0857 132.993 11.7889C133.591 11.4854 134.251 11.3271 134.921 11.3271C135.591 11.3271 136.252 11.4854 136.85 11.7889C137.413 12.0824 137.882 12.5293 138.202 13.0781C138.517 13.6529 138.682 14.2979 138.682 14.9535C138.682 15.6091 138.517 16.2542 138.202 16.829C137.883 17.3771 137.416 17.8238 136.855 18.1182ZM133.818 16.9103C134.155 17.1042 134.539 17.2034 134.928 17.1974C135.317 17.206 135.702 17.1065 136.038 16.9103C136.363 16.7228 136.628 16.4479 136.804 16.1167C136.985 15.7564 137.08 15.3585 137.08 14.9548C137.08 14.5513 136.985 14.1534 136.804 13.793C136.63 13.4593 136.364 13.1821 136.038 12.9941C135.699 12.8068 135.317 12.7086 134.929 12.7086C134.542 12.7086 134.16 12.8068 133.821 12.9941C133.496 13.177 133.229 13.4472 133.05 13.7741C132.862 14.1319 132.769 14.5319 132.779 14.936C132.77 15.3398 132.863 15.7394 133.05 16.0977C133.224 16.4356 133.491 16.7172 133.818 16.9103Z" fill="#070B12"/>
<path d="M129.177 18.3104C128.664 18.4956 128.123 18.5872 127.578 18.5813L127.587 18.5894C126.88 18.6019 126.181 18.4391 125.553 18.1154C124.974 17.8173 124.488 17.365 124.149 16.8084C123.809 16.2519 123.63 15.6124 123.63 14.9604C123.63 14.3083 123.809 13.6688 124.149 13.1122C124.488 12.5556 124.974 12.1034 125.553 11.8052C126.174 11.4849 126.864 11.323 127.562 11.334C128.107 11.3242 128.649 11.416 129.161 11.6048C129.623 11.7741 130.036 12.0583 130.359 12.4308L129.409 13.487C129.167 13.2338 128.879 13.0297 128.56 12.8858C128.257 12.7585 127.931 12.694 127.603 12.6962C127.181 12.6906 126.765 12.7932 126.394 12.9941C126.043 13.1835 125.749 13.4642 125.545 13.8066C125.33 14.1519 125.219 14.5512 125.223 14.9576C125.217 15.3582 125.323 15.7526 125.527 16.0969C125.732 16.4411 126.028 16.7218 126.383 16.9076C126.76 17.1101 127.183 17.2128 127.611 17.2055C127.953 17.2112 128.292 17.1461 128.608 17.0141C128.923 16.8823 129.208 16.6864 129.444 16.4391L130.397 17.479C130.068 17.8564 129.648 18.1427 129.177 18.3104Z" fill="#070B12"/>
</g>
<defs>
<clipPath id="clip0_5_193">
<rect width="181" height="29" fill="white"/>
</clipPath>
</defs>
</svg>
